# xmcd
#
# Track frame offsets: 
#        150
#        18766
#        37547
#        57862
#        107340
#        131559
#        152824
#        167678
#        188543
#        210181
#        242740
#        257617
#
# Disc length: 3657 seconds
#
# Revision: 0
# Processed by: cddbd v1.5.1PL0 Copyright (c) Steve Scherf et al.
# Submitted via: ExactAudioCopy v0.95a4
#
DISCID=820e470c
DTITLE=Van Morrison - Torquay
DYEAR=2001
DGENRE=Celtic
TTITLE0=Cadillac Baby
TTITLE1=Back On Top
TTITLE2=Cleaning Windows
TTITLE3=In The Afternoon
TTITLE4=Raining In My Heart
TTITLE5=All Work And No Play
TTITLE6=Days Like This
TTITLE7=Sometimes We Cry
TTITLE8=Ain't That Loving You Baby
TTITLE9=Early In The Morning
TTITLE10=Brown Eyed Girl
TTITLE11=Jackie Wilson Said ...
EXTD=
EXTT0=
EXTT1=
EXTT2=
EXTT3=
EXTT4=
EXTT5=
EXTT6=
EXTT7=
EXTT8=
EXTT9=
EXTT10=
EXTT11=
PLAYORDER=
